<svg xmlns="http://www.w3.org/2000/svg" width="1200" height="510" viewBox="0 0 1200 510" role="img" aria-labelledby="title desc">
  <title id="title">Tool Calls Proxy Flow</title>
  <desc id="desc">Diagram showing agent frontends talking OpenAI tool_calls to a proxy, which bridges Qwen XML and JSON tool output from local model servers.</desc>
  <defs>
    <marker id="arrow" markerWidth="10" markerHeight="10" refX="9" refY="5" orient="auto-start-reverse">
      <path d="M 0 0 L 10 5 L 0 10 z" fill="#355c7d"/>
    </marker>
    <style>
      .title   { font: 700 24px Arial, sans-serif; fill: #14324a; }
      .section { font: 700 16px Arial, sans-serif; fill: #14324a; }
      .label   { font: 600 14px Arial, sans-serif; fill: #17384f; }
      .text    { font: 13px Arial, sans-serif; fill: #24445b; }
      .small   { font: 12px Arial, sans-serif; fill: #35556a; }
      .line    { stroke: #355c7d; stroke-width: 2.5; fill: none; marker-end: url(#arrow); }
      .dash    { stroke: #7a8f9f; stroke-width: 2; stroke-dasharray: 8 5; fill: none; marker-end: url(#arrow); }
    </style>
  </defs>

  <rect width="1200" height="510" fill="#fbfdff"/>
  <text x="600" y="36" text-anchor="middle" class="title">Tool-calls proxy — Qwen on a 12 GB Blackwell setup</text>

  <!-- ── Agent Frontends ── x=20 w=260 -->
  <rect x="20" y="68" width="260" height="275" rx="16" ry="16" fill="#eef6fb" stroke="#355c7d" stroke-width="2"/>
  <text x="150" y="94" text-anchor="middle" class="section">Agent Frontends</text>
  <rect x="46" y="110" width="208" height="38" rx="10" ry="10" fill="#d8ebf6" stroke="#355c7d" stroke-width="2"/>
  <text x="150" y="134" text-anchor="middle" class="label">OpenCode</text>
  <rect x="46" y="160" width="208" height="38" rx="10" ry="10" fill="#d8ebf6" stroke="#355c7d" stroke-width="2"/>
  <text x="150" y="184" text-anchor="middle" class="label">QwenCode</text>
  <rect x="46" y="210" width="208" height="38" rx="10" ry="10" fill="#d8ebf6" stroke="#355c7d" stroke-width="2"/>
  <text x="150" y="234" text-anchor="middle" class="label">OpenHands</text>
  <text x="150" y="272" text-anchor="middle" class="small">Expect stable OpenAI tool_calls</text>
  <text x="150" y="288" text-anchor="middle" class="small">schema and required field names</text>
  <text x="150" y="304" text-anchor="middle" class="small">on every response</text>

  <!-- ── tool_calls_proxy.py ── x=320 w=450 -->
  <rect x="320" y="50" width="450" height="310" rx="16" ry="16" fill="#f9f1df" stroke="#ba8b33" stroke-width="2"/>
  <text x="545" y="78" text-anchor="middle" class="section">tool_calls_proxy.py  ·  port 8100</text>
  <text x="545" y="98" text-anchor="middle" class="small">Normalises model output before it reaches the frontend</text>

  <rect x="346" y="116" width="398" height="60" rx="10" ry="10" fill="#eef6fb" stroke="#355c7d" stroke-width="1.5"/>
  <text x="545" y="140" text-anchor="middle" class="text">Rewrite Qwen XML / bare JSON</text>
  <text x="545" y="158" text-anchor="middle" class="text">into OpenAI tool_calls format</text>

  <rect x="346" y="188" width="398" height="60" rx="10" ry="10" fill="#eef6fb" stroke="#355c7d" stroke-width="1.5"/>
  <text x="545" y="212" text-anchor="middle" class="text">Inject missing required fields</text>
  <text x="545" y="230" text-anchor="middle" class="text">(e.g. description in bash tool calls)</text>

  <rect x="346" y="260" width="398" height="44" rx="10" ry="10" fill="#eef6fb" stroke="#355c7d" stroke-width="1.5"/>
  <text x="545" y="287" text-anchor="middle" class="text">Reduce schema-mismatch back-and-forth retries</text>

  <!-- ── Local model side ── x=820 w=360 -->
  <rect x="820" y="68" width="360" height="275" rx="16" ry="16" fill="#eef6fb" stroke="#355c7d" stroke-width="2"/>
  <text x="1000" y="94" text-anchor="middle" class="section">Local model side</text>
  <rect x="848" y="110" width="304" height="38" rx="10" ry="10" fill="#d8ebf6" stroke="#355c7d" stroke-width="2"/>
  <text x="1000" y="134" text-anchor="middle" class="label">Ollama</text>
  <rect x="848" y="160" width="304" height="38" rx="10" ry="10" fill="#d8ebf6" stroke="#355c7d" stroke-width="2"/>
  <text x="1000" y="184" text-anchor="middle" class="label">vLLM</text>
  <rect x="848" y="210" width="304" height="38" rx="10" ry="10" fill="#d8ebf6" stroke="#355c7d" stroke-width="2"/>
  <text x="1000" y="234" text-anchor="middle" class="label">Qwen 2.5 / Qwen 3</text>
  <text x="1000" y="272" text-anchor="middle" class="small">Observed outputs: XML, bare JSON,</text>
  <text x="1000" y="288" text-anchor="middle" class="small">and partial tool_calls</text>

  <!-- ── Forward arrows (solid) ── -->
  <path d="M 280 185 L 320 185" class="line"/>
  <text x="300" y="174" text-anchor="middle" class="small">OpenAI</text>
  <text x="300" y="186" text-anchor="middle" class="small">request</text>

  <path d="M 770 175 L 820 175" class="line"/>
  <text x="795" y="164" text-anchor="middle" class="small">Forward</text>
  <text x="795" y="176" text-anchor="middle" class="small">request</text>

  <!-- ── Return arrows (dashed) ── -->
  <path d="M 820 235 L 770 235" class="dash" marker-end="url(#arrow)"/>
  <text x="795" y="228" text-anchor="middle" class="small">XML / JSON</text>
  <text x="795" y="242" text-anchor="middle" class="small">/ partial</text>

  <path d="M 320 265 L 280 265" class="dash" marker-end="url(#arrow)"/>
  <text x="300" y="258" text-anchor="middle" class="small">Normalized</text>
  <text x="300" y="272" text-anchor="middle" class="small">tool_calls</text>

  <!-- ── Bottom callout ── -->
  <rect x="60" y="378" width="1080" height="58" rx="14" ry="14" fill="#edf4d8" stroke="#7d9a3b" stroke-width="2"/>
  <text x="600" y="402" text-anchor="middle" class="label">Why this matters on 12 GB VRAM</text>
  <text x="600" y="422" text-anchor="middle" class="text">Tight VRAM leaves less room for the model to self-correct schema mismatches. The proxy removes that burden.</text>
</svg>
